<svg xmlns="http://www.w3.org/2000/svg" width="192" height="192" viewBox="0 0 192 192"><style>#s2g0 circle { r: 8.727px; }
</style><g id="s2g0"><circle cx="8.727" cy="8.727" fill="rgb(114,58,1)"></circle><circle cx="26.182" cy="8.727" fill="rgb(62,45,23)"></circle><circle cx="43.636" cy="8.727" fill="rgb(79,61,40)"></circle><circle cx="61.091" cy="8.727" fill="rgb(48,33,23)"></circle><circle cx="78.545" cy="8.727" fill="rgb(39,26,15)"></circle><circle cx="96" cy="8.727" fill="rgb(43,24,10)"></circle><circle cx="113.454" cy="8.727" fill="rgb(182,146,85)"></circle><circle cx="130.909" cy="8.727" fill="rgb(190,157,96)"></circle><circle cx="148.363" cy="8.727" fill="rgb(192,166,103)"></circle><circle cx="165.818" cy="8.727" fill="rgb(199,173,110)"></circle><circle cx="183.272" cy="8.727" fill="rgb(198,168,104)"></circle><circle cx="200.727" cy="8.727" fill="rgba(198,168,103,0.9411764705882353)"></circle><circle cx="8.727" cy="26.182" fill="rgb(200,168,103)"></circle><circle cx="26.182" cy="26.182" fill="rgb(194,160,97)"></circle><circle cx="43.636" cy="26.182" fill="rgb(43,30,20)"></circle><circle cx="61.091" cy="26.182" fill="rgb(36,24,15)"></circle><circle cx="78.545" cy="26.182" fill="rgb(48,29,18)"></circle><circle cx="96" cy="26.182" fill="rgb(173,120,92)"></circle><circle cx="113.454" cy="26.182" fill="rgb(62,35,18)"></circle><circle cx="130.909" cy="26.182" fill="rgb(174,145,92)"></circle><circle cx="148.363" cy="26.182" fill="rgb(204,177,118)"></circle><circle cx="165.818" cy="26.182" fill="rgb(198,173,109)"></circle><circle cx="183.272" cy="26.182" fill="rgb(195,166,98)"></circle><circle cx="200.727" cy="26.182" fill="rgba(195,166,98,0.9764705882352941)"></circle><circle cx="8.727" cy="43.636" fill="rgb(213,183,127)"></circle><circle cx="26.182" cy="43.636" fill="rgb(43,32,20)"></circle><circle cx="43.636" cy="43.636" fill="rgb(108,75,60)"></circle><circle cx="61.091" cy="43.636" fill="rgb(208,174,165)"></circle><circle cx="78.545" cy="43.636" fill="rgb(214,182,174)"></circle><circle cx="96" cy="43.636" fill="rgb(209,169,154)"></circle><circle cx="113.454" cy="43.636" fill="rgb(190,138,115)"></circle><circle cx="130.909" cy="43.636" fill="rgb(48,35,23)"></circle><circle cx="148.363" cy="43.636" fill="rgb(196,171,107)"></circle><circle cx="165.818" cy="43.636" fill="rgb(198,171,105)"></circle><circle cx="183.272" cy="43.636" fill="rgb(191,163,94)"></circle><circle cx="200.727" cy="43.636" fill="rgba(191,163,94,0.9333333333333333)"></circle><circle cx="8.727" cy="61.091" fill="rgb(199,163,99)"></circle><circle cx="26.182" cy="61.091" fill="rgb(39,29,18)"></circle><circle cx="43.636" cy="61.091" fill="rgb(184,153,136)"></circle><circle cx="61.091" cy="61.091" fill="rgb(212,179,167)"></circle><circle cx="78.545" cy="61.091" fill="rgb(215,179,171)"></circle><circle cx="96" cy="61.091" fill="rgb(215,175,167)"></circle><circle cx="113.454" cy="61.091" fill="rgb(182,135,118)"></circle><circle cx="130.909" cy="61.091" fill="rgb(89,60,45)"></circle><circle cx="148.363" cy="61.091" fill="rgb(203,181,117)"></circle><circle cx="165.818" cy="61.091" fill="rgb(200,174,109)"></circle><circle cx="183.272" cy="61.091" fill="rgb(189,158,94)"></circle><circle cx="200.727" cy="61.091" fill="rgba(189,159,94,0.9686274509803922)"></circle><circle cx="8.727" cy="78.545" fill="rgb(186,95,50)"></circle><circle cx="26.182" cy="78.545" fill="rgb(121,77,57)"></circle><circle cx="43.636" cy="78.545" fill="rgb(184,154,142)"></circle><circle cx="61.091" cy="78.545" fill="rgb(163,123,114)"></circle><circle cx="78.545" cy="78.545" fill="rgb(118,87,77)"></circle><circle cx="96" cy="78.545" fill="rgb(137,95,81)"></circle><circle cx="113.454" cy="78.545" fill="rgb(83,60,52)"></circle><circle cx="130.909" cy="78.545" fill="rgb(171,121,94)"></circle><circle cx="148.363" cy="78.545" fill="rgb(202,110,98)"></circle><circle cx="165.818" cy="78.545" fill="rgb(196,169,103)"></circle><circle cx="183.272" cy="78.545" fill="rgb(168,140,76)"></circle><circle cx="200.727" cy="78.545" fill="rgba(169,139,77,0.9254901960784314)"></circle><circle cx="8.727" cy="96" fill="rgb(151,133,105)"></circle><circle cx="26.182" cy="96" fill="rgb(192,95,81)"></circle><circle cx="43.636" cy="96" fill="rgb(175,138,128)"></circle><circle cx="61.091" cy="96" fill="rgb(183,134,121)"></circle><circle cx="78.545" cy="96" fill="rgb(194,138,124)"></circle><circle cx="96" cy="96" fill="rgb(206,137,123)"></circle><circle cx="113.454" cy="96" fill="rgb(224,170,161)"></circle><circle cx="130.909" cy="96" fill="rgb(192,135,112)"></circle><circle cx="148.363" cy="96" fill="rgb(200,130,116)"></circle><circle cx="165.818" cy="96" fill="rgb(163,133,71)"></circle><circle cx="183.272" cy="96" fill="rgb(184,154,92)"></circle><circle cx="200.727" cy="96" fill="rgba(184,154,93,0.9607843137254902)"></circle><circle cx="8.727" cy="113.454" fill="rgb(145,104,86)"></circle><circle cx="26.182" cy="113.454" fill="rgb(210,205,87)"></circle><circle cx="43.636" cy="113.454" fill="rgb(95,50,27)"></circle><circle cx="61.091" cy="113.454" fill="rgb(206,143,133)"></circle><circle cx="78.545" cy="113.454" fill="rgb(198,128,117)"></circle><circle cx="96" cy="113.454" fill="rgb(187,127,113)"></circle><circle cx="113.454" cy="113.454" fill="rgb(140,84,58)"></circle><circle cx="130.909" cy="113.454" fill="rgb(193,140,118)"></circle><circle cx="148.363" cy="113.454" fill="rgb(185,177,141)"></circle><circle cx="165.818" cy="113.454" fill="rgb(188,166,99)"></circle><circle cx="183.272" cy="113.454" fill="rgb(169,173,149)"></circle><circle cx="200.727" cy="113.454" fill="rgba(169,173,149,0.984313725490196)"></circle><circle cx="8.727" cy="130.909" fill="rgb(167,121,100)"></circle><circle cx="26.182" cy="130.909" fill="rgb(142,180,60)"></circle><circle cx="43.636" cy="130.909" fill="rgb(172,162,131)"></circle><circle cx="61.091" cy="130.909" fill="rgb(161,115,96)"></circle><circle cx="78.545" cy="130.909" fill="rgb(88,35,24)"></circle><circle cx="96" cy="130.909" fill="rgb(134,70,55)"></circle><circle cx="113.454" cy="130.909" fill="rgb(156,76,69)"></circle><circle cx="130.909" cy="130.909" fill="rgb(154,112,89)"></circle><circle cx="148.363" cy="130.909" fill="rgb(184,185,153)"></circle><circle cx="165.818" cy="130.909" fill="rgb(183,164,95)"></circle><circle cx="183.272" cy="130.909" fill="rgb(169,157,110)"></circle><circle cx="200.727" cy="130.909" fill="rgba(169,156,110,0.9529411764705882)"></circle><circle cx="8.727" cy="148.363" fill="rgb(156,110,105)"></circle><circle cx="26.182" cy="148.363" fill="rgb(112,160,190)"></circle><circle cx="43.636" cy="148.363" fill="rgb(142,145,135)"></circle><circle cx="61.091" cy="148.363" fill="rgb(76,38,18)"></circle><circle cx="78.545" cy="148.363" fill="rgb(180,128,110)"></circle><circle cx="96" cy="148.363" fill="rgb(176,118,106)"></circle><circle cx="113.454" cy="148.363" fill="rgb(173,117,92)"></circle><circle cx="130.909" cy="148.363" fill="rgb(119,83,60)"></circle><circle cx="148.363" cy="148.363" fill="rgb(183,185,160)"></circle><circle cx="165.818" cy="148.363" fill="rgb(164,138,73)"></circle><circle cx="183.272" cy="148.363" fill="rgb(175,148,93)"></circle><circle cx="200.727" cy="148.363" fill="rgba(176,148,92,0.984313725490196)"></circle><circle cx="8.727" cy="165.818" fill="rgb(170,152,60)"></circle><circle cx="26.182" cy="165.818" fill="rgb(209,190,95)"></circle><circle cx="43.636" cy="165.818" fill="rgb(209,194,69)"></circle><circle cx="61.091" cy="165.818" fill="rgb(166,141,136)"></circle><circle cx="78.545" cy="165.818" fill="rgb(81,45,26)"></circle><circle cx="96" cy="165.818" fill="rgb(187,127,107)"></circle><circle cx="113.454" cy="165.818" fill="rgb(131,79,53)"></circle><circle cx="130.909" cy="165.818" fill="rgb(143,184,211)"></circle><circle cx="148.363" cy="165.818" fill="rgb(185,190,164)"></circle><circle cx="165.818" cy="165.818" fill="rgb(158,132,74)"></circle><circle cx="183.272" cy="165.818" fill="rgb(173,147,92)"></circle><circle cx="200.727" cy="165.818" fill="rgba(173,146,92,0.9490196078431372)"></circle><circle cx="8.727" cy="183.272" fill="rgb(173,86,73)"></circle><circle cx="26.182" cy="183.272" fill="rgb(194,131,116)"></circle><circle cx="43.636" cy="183.272" fill="rgb(123,173,225)"></circle><circle cx="61.091" cy="183.272" fill="rgb(62,101,151)"></circle><circle cx="78.545" cy="183.272" fill="rgb(166,133,122)"></circle><circle cx="96" cy="183.272" fill="rgb(144,184,212)"></circle><circle cx="113.454" cy="183.272" fill="rgb(143,189,219)"></circle><circle cx="130.909" cy="183.272" fill="rgb(148,190,224)"></circle><circle cx="148.363" cy="183.272" fill="rgb(160,190,220)"></circle><circle cx="165.818" cy="183.272" fill="rgb(77,60,34)"></circle><circle cx="183.272" cy="183.272" fill="rgb(103,81,44)"></circle><circle cx="200.727" cy="183.272" fill="rgba(104,81,44,0.984313725490196)"></circle><circle cx="8.727" cy="200.727" fill="rgba(172,86,73,0.9411764705882353)"></circle><circle cx="26.182" cy="200.727" fill="rgba(194,131,116,0.9764705882352941)"></circle><circle cx="43.636" cy="200.727" fill="rgba(123,174,225,0.9333333333333333)"></circle><circle cx="61.091" cy="200.727" fill="rgba(62,101,152,0.9686274509803922)"></circle><circle cx="78.545" cy="200.727" fill="rgba(165,134,122,0.9254901960784314)"></circle><circle cx="96" cy="200.727" fill="rgba(145,184,212,0.9607843137254902)"></circle><circle cx="113.454" cy="200.727" fill="rgba(143,189,218,0.984313725490196)"></circle><circle cx="130.909" cy="200.727" fill="rgba(149,191,224,0.9529411764705882)"></circle><circle cx="148.363" cy="200.727" fill="rgba(161,190,220,0.984313725490196)"></circle><circle cx="165.818" cy="200.727" fill="rgba(77,60,34,0.9490196078431372)"></circle><circle cx="183.272" cy="200.727" fill="rgba(104,81,44,0.984313725490196)"></circle><circle cx="200.727" cy="200.727" fill="rgba(0,0,0,0)"></circle></g></svg>
