<svg xmlns="http://www.w3.org/2000/svg" width="192" height="192" viewBox="0 0 192 192"><style>#s3g0 rect { width: 12px; height: 12px; }
#s3g1 circle { r: 2px; }
</style><g id="s3g0"><rect x="0" y="0" fill="rgba(148,150,154,0.2)"></rect><rect x="12" y="0" fill="rgba(152,151,153,0.2)"></rect><rect x="24" y="0" fill="rgba(153,155,159,0.2)"></rect><rect x="36" y="0" fill="rgba(152,154,158,0.2)"></rect><rect x="48" y="0" fill="rgba(153,152,156,0.2)"></rect><rect x="60" y="0" fill="rgba(152,154,158,0.2)"></rect><rect x="72" y="0" fill="rgba(149,152,153,0.2)"></rect><rect x="84" y="0" fill="rgba(105,89,85,0.2)"></rect><rect x="96" y="0" fill="rgba(154,153,155,0.2)"></rect><rect x="108" y="0" fill="rgba(149,152,153,0.2)"></rect><rect x="120" y="0" fill="rgba(145,147,151,0.2)"></rect><rect x="132" y="0" fill="rgba(145,144,147,0.2)"></rect><rect x="144" y="0" fill="rgba(145,148,149,0.2)"></rect><rect x="156" y="0" fill="rgba(144,146,148,0.2)"></rect><rect x="168" y="0" fill="rgba(141,140,145,0.2)"></rect><rect x="180" y="0" fill="rgba(142,143,147,0.2)"></rect><rect x="0" y="12" fill="rgba(158,158,160,0.2)"></rect><rect x="12" y="12" fill="rgba(157,159,163,0.2)"></rect><rect x="24" y="12" fill="rgba(157,159,161,0.2)"></rect><rect x="36" y="12" fill="rgba(157,156,159,0.2)"></rect><rect x="48" y="12" fill="rgba(162,162,163,0.2)"></rect><rect x="60" y="12" fill="rgba(18,12,6,0.2)"></rect><rect x="72" y="12" fill="rgba(38,25,16,0.2)"></rect><rect x="84" y="12" fill="rgba(49,31,17,0.2)"></rect><rect x="96" y="12" fill="rgba(19,14,7,0.2)"></rect><rect x="108" y="12" fill="rgba(13,10,6,0.2)"></rect><rect x="120" y="12" fill="rgba(81,87,88,0.2)"></rect><rect x="132" y="12" fill="rgba(153,157,158,0.2)"></rect><rect x="144" y="12" fill="rgba(148,154,154,0.2)"></rect><rect x="156" y="12" fill="rgba(149,151,153,0.2)"></rect><rect x="168" y="12" fill="rgba(147,146,151,0.2)"></rect><rect x="180" y="12" fill="rgba(143,142,145,0.2)"></rect><rect x="0" y="24" fill="rgba(163,163,167,0.2)"></rect><rect x="12" y="24" fill="rgba(167,169,171,0.2)"></rect><rect x="24" y="24" fill="rgba(162,164,166,0.2)"></rect><rect x="36" y="24" fill="rgba(162,166,167,0.2)"></rect><rect x="48" y="24" fill="rgba(16,13,7,0.2)"></rect><rect x="60" y="24" fill="rgba(16,9,6,0.2)"></rect><rect x="72" y="24" fill="rgba(16,6,0,0.2)"></rect><rect x="84" y="24" fill="rgba(16,11,4,0.2)"></rect><rect x="96" y="24" fill="rgba(42,33,21,0.2)"></rect><rect x="108" y="24" fill="rgba(33,20,13,0.2)"></rect><rect x="120" y="24" fill="rgba(4,3,0,0.2)"></rect><rect x="132" y="24" fill="rgba(11,8,4,0.2)"></rect><rect x="144" y="24" fill="rgba(158,157,161,0.2)"></rect><rect x="156" y="24" fill="rgba(156,155,161,0.2)"></rect><rect x="168" y="24" fill="rgba(152,154,156,0.2)"></rect><rect x="180" y="24" fill="rgba(154,152,158,0.2)"></rect><rect x="0" y="36" fill="rgba(169,172,173,0.2)"></rect><rect x="12" y="36" fill="rgba(170,172,174,0.2)"></rect><rect x="24" y="36" fill="rgba(173,175,178,0.2)"></rect><rect x="36" y="36" fill="rgba(170,172,173,0.2)"></rect><rect x="48" y="36" fill="rgba(15,10,3,0.2)"></rect><rect x="60" y="36" fill="rgba(38,18,8,0.2)"></rect><rect x="72" y="36" fill="rgba(152,107,74,0.2)"></rect><rect x="84" y="36" fill="rgba(80,35,14,0.2)"></rect><rect x="96" y="36" fill="rgba(32,16,8,0.2)"></rect><rect x="108" y="36" fill="rgba(38,30,17,0.2)"></rect><rect x="120" y="36" fill="rgba(7,5,0,0.2)"></rect><rect x="132" y="36" fill="rgba(6,5,0,0.2)"></rect><rect x="144" y="36" fill="rgba(160,160,163,0.2)"></rect><rect x="156" y="36" fill="rgba(158,160,162,0.2)"></rect><rect x="168" y="36" fill="rgba(159,160,162,0.2)"></rect><rect x="180" y="36" fill="rgba(156,156,158,0.2)"></rect><rect x="0" y="48" fill="rgba(171,176,177,0.2)"></rect><rect x="12" y="48" fill="rgba(177,180,181,0.2)"></rect><rect x="24" y="48" fill="rgba(182,185,186,0.2)"></rect><rect x="36" y="48" fill="rgba(19,13,8,0.2)"></rect><rect x="48" y="48" fill="rgba(37,22,11,0.2)"></rect><rect x="60" y="48" fill="rgba(169,93,46,0.2)"></rect><rect x="72" y="48" fill="rgba(227,141,102,0.2)"></rect><rect x="84" y="48" fill="rgba(252,161,128,0.2)"></rect><rect x="96" y="48" fill="rgba(245,172,138,0.2)"></rect><rect x="108" y="48" fill="rgba(182,117,71,0.2)"></rect><rect x="120" y="48" fill="rgba(20,8,3,0.2)"></rect><rect x="132" y="48" fill="rgba(17,14,10,0.2)"></rect><rect x="144" y="48" fill="rgba(43,45,41,0.2)"></rect><rect x="156" y="48" fill="rgba(167,166,169,0.2)"></rect><rect x="168" y="48" fill="rgba(167,167,169,0.2)"></rect><rect x="180" y="48" fill="rgba(163,163,165,0.2)"></rect><rect x="0" y="60" fill="rgba(182,185,185,0.2)"></rect><rect x="12" y="60" fill="rgba(188,187,189,0.2)"></rect><rect x="24" y="60" fill="rgba(184,185,184,0.2)"></rect><rect x="36" y="60" fill="rgba(12,11,6,0.2)"></rect><rect x="48" y="60" fill="rgba(53,31,14,0.2)"></rect><rect x="60" y="60" fill="rgba(180,109,66,0.2)"></rect><rect x="72" y="60" fill="rgba(220,141,102,0.2)"></rect><rect x="84" y="60" fill="rgba(253,166,133,0.2)"></rect><rect x="96" y="60" fill="rgba(255,193,163,0.2)"></rect><rect x="108" y="60" fill="rgba(255,177,141,0.2)"></rect><rect x="120" y="60" fill="rgba(229,143,104,0.2)"></rect><rect x="132" y="60" fill="rgba(176,107,66,0.2)"></rect><rect x="144" y="60" fill="rgba(10,9,6,0.2)"></rect><rect x="156" y="60" fill="rgba(172,174,176,0.2)"></rect><rect x="168" y="60" fill="rgba(171,170,172,0.2)"></rect><rect x="180" y="60" fill="rgba(166,169,170,0.2)"></rect><rect x="0" y="72" fill="rgba(192,194,193,0.2)"></rect><rect x="12" y="72" fill="rgba(192,192,194,0.2)"></rect><rect x="24" y="72" fill="rgba(192,192,192,0.2)"></rect><rect x="36" y="72" fill="rgba(9,8,4,0.2)"></rect><rect x="48" y="72" fill="rgba(83,34,13,0.2)"></rect><rect x="60" y="72" fill="rgba(171,99,61,0.2)"></rect><rect x="72" y="72" fill="rgba(225,140,108,0.2)"></rect><rect x="84" y="72" fill="rgba(255,174,147,0.2)"></rect><rect x="96" y="72" fill="rgba(255,182,156,0.2)"></rect><rect x="108" y="72" fill="rgba(255,176,144,0.2)"></rect><rect x="120" y="72" fill="rgba(229,145,110,0.2)"></rect><rect x="132" y="72" fill="rgba(165,95,52,0.2)"></rect><rect x="144" y="72" fill="rgba(10,6,1,0.2)"></rect><rect x="156" y="72" fill="rgba(185,185,185,0.2)"></rect><rect x="168" y="72" fill="rgba(174,174,174,0.2)"></rect><rect x="180" y="72" fill="rgba(171,171,173,0.2)"></rect><rect x="0" y="84" fill="rgba(198,198,198,0.2)"></rect><rect x="12" y="84" fill="rgba(197,197,197,0.2)"></rect><rect x="24" y="84" fill="rgba(197,200,200,0.2)"></rect><rect x="36" y="84" fill="rgba(31,8,0,0.2)"></rect><rect x="48" y="84" fill="rgba(120,55,22,0.2)"></rect><rect x="60" y="84" fill="rgba(156,97,68,0.2)"></rect><rect x="72" y="84" fill="rgba(171,103,67,0.2)"></rect><rect x="84" y="84" fill="rgba(113,55,25,0.2)"></rect><rect x="96" y="84" fill="rgba(238,151,124,0.2)"></rect><rect x="108" y="84" fill="rgba(73,29,15,0.2)"></rect><rect x="120" y="84" fill="rgba(134,69,36,0.2)"></rect><rect x="132" y="84" fill="rgba(169,100,61,0.2)"></rect><rect x="144" y="84" fill="rgba(17,10,5,0.2)"></rect><rect x="156" y="84" fill="rgba(188,187,189,0.2)"></rect><rect x="168" y="84" fill="rgba(187,187,189,0.2)"></rect><rect x="180" y="84" fill="rgba(181,181,181,0.2)"></rect><rect x="0" y="96" fill="rgba(210,207,208,0.2)"></rect><rect x="12" y="96" fill="rgba(210,210,208,0.2)"></rect><rect x="24" y="96" fill="rgba(214,215,212,0.2)"></rect><rect x="36" y="96" fill="rgba(145,74,35,0.2)"></rect><rect x="48" y="96" fill="rgba(133,64,30,0.2)"></rect><rect x="60" y="96" fill="rgba(120,51,15,0.2)"></rect><rect x="72" y="96" fill="rgba(182,99,83,0.2)"></rect><rect x="84" y="96" fill="rgba(183,105,78,0.2)"></rect><rect x="96" y="96" fill="rgba(242,146,118,0.2)"></rect><rect x="108" y="96" fill="rgba(205,110,87,0.2)"></rect><rect x="120" y="96" fill="rgba(175,97,74,0.2)"></rect><rect x="132" y="96" fill="rgba(177,115,77,0.2)"></rect><rect x="144" y="96" fill="rgba(195,99,84,0.2)"></rect><rect x="156" y="96" fill="rgba(195,195,195,0.2)"></rect><rect x="168" y="96" fill="rgba(191,191,191,0.2)"></rect><rect x="180" y="96" fill="rgba(183,182,184,0.2)"></rect><rect x="0" y="108" fill="rgba(218,218,216,0.2)"></rect><rect x="12" y="108" fill="rgba(217,218,215,0.2)"></rect><rect x="24" y="108" fill="rgba(226,224,222,0.2)"></rect><rect x="36" y="108" fill="rgba(182,103,79,0.2)"></rect><rect x="48" y="108" fill="rgba(111,53,29,0.2)"></rect><rect x="60" y="108" fill="rgba(213,127,99,0.2)"></rect><rect x="72" y="108" fill="rgba(255,154,133,0.2)"></rect><rect x="84" y="108" fill="rgba(189,109,69,0.2)"></rect><rect x="96" y="108" fill="rgba(245,136,113,0.2)"></rect><rect x="108" y="108" fill="rgba(255,169,143,0.2)"></rect><rect x="120" y="108" fill="rgba(255,159,132,0.2)"></rect><rect x="132" y="108" fill="rgba(184,111,76,0.2)"></rect><rect x="144" y="108" fill="rgba(208,208,208,0.2)"></rect><rect x="156" y="108" fill="rgba(202,202,202,0.2)"></rect><rect x="168" y="108" fill="rgba(198,198,198,0.2)"></rect><rect x="180" y="108" fill="rgba(191,191,191,0.2)"></rect><rect x="0" y="120" fill="rgba(223,226,223,0.2)"></rect><rect x="12" y="120" fill="rgba(232,230,227,0.2)"></rect><rect x="24" y="120" fill="rgba(230,231,227,0.2)"></rect><rect x="36" y="120" fill="rgba(235,233,229,0.2)"></rect><rect x="48" y="120" fill="rgba(108,52,26,0.2)"></rect><rect x="60" y="120" fill="rgba(169,96,62,0.2)"></rect><rect x="72" y="120" fill="rgba(200,124,84,0.2)"></rect><rect x="84" y="120" fill="rgba(101,20,11,0.2)"></rect><rect x="96" y="120" fill="rgba(165,87,71,0.2)"></rect><rect x="108" y="120" fill="rgba(223,125,96,0.2)"></rect><rect x="120" y="120" fill="rgba(236,145,119,0.2)"></rect><rect x="132" y="120" fill="rgba(142,83,54,0.2)"></rect><rect x="144" y="120" fill="rgba(215,215,213,0.2)"></rect><rect x="156" y="120" fill="rgba(210,210,208,0.2)"></rect><rect x="168" y="120" fill="rgba(205,205,205,0.2)"></rect><rect x="180" y="120" fill="rgba(197,197,197,0.2)"></rect><rect x="0" y="132" fill="rgba(232,232,231,0.2)"></rect><rect x="12" y="132" fill="rgba(238,237,232,0.2)"></rect><rect x="24" y="132" fill="rgba(237,235,229,0.2)"></rect><rect x="36" y="132" fill="rgba(240,238,235,0.2)"></rect><rect x="48" y="132" fill="rgba(242,240,236,0.2)"></rect><rect x="60" y="132" fill="rgba(133,76,36,0.2)"></rect><rect x="72" y="132" fill="rgba(146,42,29,0.2)"></rect><rect x="84" y="132" fill="rgba(191,141,101,0.2)"></rect><rect x="96" y="132" fill="rgba(187,81,59,0.2)"></rect><rect x="108" y="132" fill="rgba(95,6,0,0.2)"></rect><rect x="120" y="132" fill="rgba(186,115,79,0.2)"></rect><rect x="132" y="132" fill="rgba(231,228,222,0.2)"></rect><rect x="144" y="132" fill="rgba(219,220,218,0.2)"></rect><rect x="156" y="132" fill="rgba(217,218,215,0.2)"></rect><rect x="168" y="132" fill="rgba(211,209,208,0.2)"></rect><rect x="180" y="132" fill="rgba(206,207,207,0.2)"></rect><rect x="0" y="144" fill="rgba(241,239,235,0.2)"></rect><rect x="12" y="144" fill="rgba(240,239,233,0.2)"></rect><rect x="24" y="144" fill="rgba(246,243,240,0.2)"></rect><rect x="36" y="144" fill="rgba(244,246,239,0.2)"></rect><rect x="48" y="144" fill="rgba(250,248,243,0.2)"></rect><rect x="60" y="144" fill="rgba(104,60,28,0.2)"></rect><rect x="72" y="144" fill="rgba(203,128,90,0.2)"></rect><rect x="84" y="144" fill="rgba(194,86,78,0.2)"></rect><rect x="96" y="144" fill="rgba(228,117,114,0.2)"></rect><rect x="108" y="144" fill="rgba(214,138,110,0.2)"></rect><rect x="120" y="144" fill="rgba(161,108,74,0.2)"></rect><rect x="132" y="144" fill="rgba(57,89,138,0.2)"></rect><rect x="144" y="144" fill="rgba(230,228,225,0.2)"></rect><rect x="156" y="144" fill="rgba(225,223,220,0.2)"></rect><rect x="168" y="144" fill="rgba(214,211,210,0.2)"></rect><rect x="180" y="144" fill="rgba(210,210,208,0.2)"></rect><rect x="0" y="156" fill="rgba(250,249,245,0.2)"></rect><rect x="12" y="156" fill="rgba(252,250,245,0.2)"></rect><rect x="24" y="156" fill="rgba(254,255,250,0.2)"></rect><rect x="36" y="156" fill="rgba(254,254,254,0.2)"></rect><rect x="48" y="156" fill="rgba(254,254,254,0.2)"></rect><rect x="60" y="156" fill="rgba(102,47,17,0.2)"></rect><rect x="72" y="156" fill="rgba(88,49,26,0.2)"></rect><rect x="84" y="156" fill="rgba(208,141,105,0.2)"></rect><rect x="96" y="156" fill="rgba(219,151,126,0.2)"></rect><rect x="108" y="156" fill="rgba(170,125,94,0.2)"></rect><rect x="120" y="156" fill="rgba(167,91,60,0.2)"></rect><rect x="132" y="156" fill="rgba(75,106,152,0.2)"></rect><rect x="144" y="156" fill="rgba(235,233,229,0.2)"></rect><rect x="156" y="156" fill="rgba(230,228,224,0.2)"></rect><rect x="168" y="156" fill="rgba(224,221,220,0.2)"></rect><rect x="180" y="156" fill="rgba(218,219,217,0.2)"></rect><rect x="0" y="168" fill="rgba(254,254,252,0.2)"></rect><rect x="12" y="168" fill="rgba(254,254,254,0.2)"></rect><rect x="24" y="168" fill="rgba(254,254,254,0.2)"></rect><rect x="36" y="168" fill="rgba(254,254,254,0.2)"></rect><rect x="48" y="168" fill="rgba(254,254,254,0.2)"></rect><rect x="60" y="168" fill="rgba(9,4,1,0.2)"></rect><rect x="72" y="168" fill="rgba(89,33,14,0.2)"></rect><rect x="84" y="168" fill="rgba(86,43,23,0.2)"></rect><rect x="96" y="168" fill="rgba(34,14,9,0.2)"></rect><rect x="108" y="168" fill="rgba(140,74,52,0.2)"></rect><rect x="120" y="168" fill="rgba(127,99,102,0.2)"></rect><rect x="132" y="168" fill="rgba(66,111,168,0.2)"></rect><rect x="144" y="168" fill="rgba(61,103,157,0.2)"></rect><rect x="156" y="168" fill="rgba(48,88,142,0.2)"></rect><rect x="168" y="168" fill="rgba(232,230,226,0.2)"></rect><rect x="180" y="168" fill="rgba(222,220,218,0.2)"></rect><rect x="0" y="180" fill="rgba(254,254,254,0.2)"></rect><rect x="12" y="180" fill="rgba(254,254,254,0.2)"></rect><rect x="24" y="180" fill="rgba(254,254,254,0.2)"></rect><rect x="36" y="180" fill="rgba(40,61,91,0.2)"></rect><rect x="48" y="180" fill="rgba(9,20,47,0.2)"></rect><rect x="60" y="180" fill="rgba(0,0,0,0.2)"></rect><rect x="72" y="180" fill="rgba(88,34,17,0.2)"></rect><rect x="84" y="180" fill="rgba(103,57,38,0.2)"></rect><rect x="96" y="180" fill="rgba(137,81,51,0.2)"></rect><rect x="108" y="180" fill="rgba(157,91,60,0.2)"></rect><rect x="120" y="180" fill="rgba(37,84,151,0.2)"></rect><rect x="132" y="180" fill="rgba(62,108,169,0.2)"></rect><rect x="144" y="180" fill="rgba(69,90,147,0.2)"></rect><rect x="156" y="180" fill="rgba(92,120,173,0.2)"></rect><rect x="168" y="180" fill="rgba(89,132,188,0.2)"></rect><rect x="180" y="180" fill="rgba(62,98,155,0.2)"></rect></g><g id="s3g1"><circle cx="4" cy="4" fill="rgb(149,151,155)"></circle><circle cx="12" cy="4" fill="rgb(149,151,155)"></circle><circle cx="20" cy="4" fill="rgb(146,151,153)"></circle><circle cx="28" cy="4" fill="rgb(146,151,152)"></circle><circle cx="36" cy="4" fill="rgb(150,152,154)"></circle><circle cx="44" cy="4" fill="rgb(153,155,157)"></circle><circle cx="52" cy="4" fill="rgb(151,150,153)"></circle><circle cx="60" cy="4" fill="rgb(155,155,159)"></circle><circle cx="68" cy="4" fill="rgb(153,154,156)"></circle><circle cx="76" cy="4" fill="rgb(152,155,157)"></circle><circle cx="84" cy="4" fill="rgb(155,154,158)"></circle><circle cx="92" cy="4" fill="rgb(153,154,156)"></circle><circle cx="100" cy="4" fill="rgb(153,154,156)"></circle><circle cx="108" cy="4" fill="rgb(147,149,153)"></circle><circle cx="116" cy="4" fill="rgb(149,151,155)"></circle><circle cx="124" cy="4" fill="rgb(151,150,152)"></circle><circle cx="132" cy="4" fill="rgb(147,149,152)"></circle><circle cx="140" cy="4" fill="rgb(144,144,148)"></circle><circle cx="148" cy="4" fill="rgb(143,146,147)"></circle><circle cx="156" cy="4" fill="rgb(144,146,149)"></circle><circle cx="164" cy="4" fill="rgb(143,144,146)"></circle><circle cx="172" cy="4" fill="rgb(143,143,146)"></circle><circle cx="180" cy="4" fill="rgb(141,146,147)"></circle><circle cx="188" cy="4" fill="rgb(136,141,142)"></circle><circle cx="4" cy="12" fill="rgb(153,155,159)"></circle><circle cx="12" cy="12" fill="rgb(151,153,155)"></circle><circle cx="20" cy="12" fill="rgb(151,157,158)"></circle><circle cx="28" cy="12" fill="rgb(156,158,160)"></circle><circle cx="36" cy="12" fill="rgb(152,152,154)"></circle><circle cx="44" cy="12" fill="rgb(155,154,158)"></circle><circle cx="52" cy="12" fill="rgb(156,155,159)"></circle><circle cx="60" cy="12" fill="rgb(153,155,159)"></circle><circle cx="68" cy="12" fill="rgb(138,131,135)"></circle><circle cx="76" cy="12" fill="rgb(17,12,5)"></circle><circle cx="84" cy="12" fill="rgb(20,12,6)"></circle><circle cx="92" cy="12" fill="rgb(16,13,7)"></circle><circle cx="100" cy="12" fill="rgb(10,9,3)"></circle><circle cx="108" cy="12" fill="rgb(21,16,10)"></circle><circle cx="116" cy="12" fill="rgb(15,16,9)"></circle><circle cx="124" cy="12" fill="rgb(151,153,155)"></circle><circle cx="132" cy="12" fill="rgb(155,154,158)"></circle><circle cx="140" cy="12" fill="rgb(147,149,151)"></circle><circle cx="148" cy="12" fill="rgb(146,148,149)"></circle><circle cx="156" cy="12" fill="rgb(148,147,151)"></circle><circle cx="164" cy="12" fill="rgb(147,149,151)"></circle><circle cx="172" cy="12" fill="rgb(147,150,149)"></circle><circle cx="180" cy="12" fill="rgb(145,148,150)"></circle><circle cx="188" cy="12" fill="rgb(143,146,147)"></circle><circle cx="4" cy="20" fill="rgb(160,160,163)"></circle><circle cx="12" cy="20" fill="rgb(156,159,161)"></circle><circle cx="20" cy="20" fill="rgb(159,161,161)"></circle><circle cx="28" cy="20" fill="rgb(160,162,164)"></circle><circle cx="36" cy="20" fill="rgb(154,159,160)"></circle><circle cx="44" cy="20" fill="rgb(159,161,163)"></circle><circle cx="52" cy="20" fill="rgb(159,161,163)"></circle><circle cx="60" cy="20" fill="rgb(33,20,15)"></circle><circle cx="68" cy="20" fill="rgb(21,15,8)"></circle><circle cx="76" cy="20" fill="rgb(51,43,27)"></circle><circle cx="84" cy="20" fill="rgb(51,43,23)"></circle><circle cx="92" cy="20" fill="rgb(26,16,6)"></circle><circle cx="100" cy="20" fill="rgb(31,21,9)"></circle><circle cx="108" cy="20" fill="rgb(15,10,3)"></circle><circle cx="116" cy="20" fill="rgb(12,10,3)"></circle><circle cx="124" cy="20" fill="rgb(14,12,9)"></circle><circle cx="132" cy="20" fill="rgb(142,142,146)"></circle><circle cx="140" cy="20" fill="rgb(156,157,159)"></circle><circle cx="148" cy="20" fill="rgb(152,152,156)"></circle><circle cx="156" cy="20" fill="rgb(150,151,155)"></circle><circle cx="164" cy="20" fill="rgb(148,145,148)"></circle><circle cx="172" cy="20" fill="rgb(153,149,154)"></circle><circle cx="180" cy="20" fill="rgb(149,148,153)"></circle><circle cx="188" cy="20" fill="rgb(149,149,151)"></circle><circle cx="4" cy="28" fill="rgb(159,161,163)"></circle><circle cx="12" cy="28" fill="rgb(164,164,166)"></circle><circle cx="20" cy="28" fill="rgb(159,164,167)"></circle><circle cx="28" cy="28" fill="rgb(161,163,165)"></circle><circle cx="36" cy="28" fill="rgb(161,163,164)"></circle><circle cx="44" cy="28" fill="rgb(157,162,163)"></circle><circle cx="52" cy="28" fill="rgb(25,19,12)"></circle><circle cx="60" cy="28" fill="rgb(19,13,7)"></circle><circle cx="68" cy="28" fill="rgb(26,15,6)"></circle><circle cx="76" cy="28" fill="rgb(22,14,11)"></circle><circle cx="84" cy="28" fill="rgb(9,8,4)"></circle><circle cx="92" cy="28" fill="rgb(12,6,0)"></circle><circle cx="100" cy="28" fill="rgb(32,20,12)"></circle><circle cx="108" cy="28" fill="rgb(17,14,9)"></circle><circle cx="116" cy="28" fill="rgb(10,6,2)"></circle><circle cx="124" cy="28" fill="rgb(12,8,4)"></circle><circle cx="132" cy="28" fill="rgb(15,11,1)"></circle><circle cx="140" cy="28" fill="rgb(151,152,155)"></circle><circle cx="148" cy="28" fill="rgb(155,155,157)"></circle><circle cx="156" cy="28" fill="rgb(160,159,162)"></circle><circle cx="164" cy="28" fill="rgb(154,153,158)"></circle><circle cx="172" cy="28" fill="rgb(147,152,155)"></circle><circle cx="180" cy="28" fill="rgb(154,156,159)"></circle><circle cx="188" cy="28" fill="rgb(150,149,156)"></circle><circle cx="4" cy="36" fill="rgb(164,167,169)"></circle><circle cx="12" cy="36" fill="rgb(168,169,173)"></circle><circle cx="20" cy="36" fill="rgb(165,168,171)"></circle><circle cx="28" cy="36" fill="rgb(169,171,173)"></circle><circle cx="36" cy="36" fill="rgb(166,168,171)"></circle><circle cx="44" cy="36" fill="rgb(155,158,159)"></circle><circle cx="52" cy="36" fill="rgb(11,8,4)"></circle><circle cx="60" cy="36" fill="rgb(23,16,6)"></circle><circle cx="68" cy="36" fill="rgb(21,14,5)"></circle><circle cx="76" cy="36" fill="rgb(44,27,12)"></circle><circle cx="84" cy="36" fill="rgb(17,9,1)"></circle><circle cx="92" cy="36" fill="rgb(9,6,2)"></circle><circle cx="100" cy="36" fill="rgb(25,16,11)"></circle><circle cx="108" cy="36" fill="rgb(18,13,6)"></circle><circle cx="116" cy="36" fill="rgb(21,17,7)"></circle><circle cx="124" cy="36" fill="rgb(13,11,8)"></circle><circle cx="132" cy="36" fill="rgb(18,13,8)"></circle><circle cx="140" cy="36" fill="rgb(18,11,5)"></circle><circle cx="148" cy="36" fill="rgb(160,159,165)"></circle><circle cx="156" cy="36" fill="rgb(158,158,160)"></circle><circle cx="164" cy="36" fill="rgb(157,157,159)"></circle><circle cx="172" cy="36" fill="rgb(157,157,159)"></circle><circle cx="180" cy="36" fill="rgb(156,155,158)"></circle><circle cx="188" cy="36" fill="rgb(153,152,156)"></circle><circle cx="4" cy="44" fill="rgb(174,176,178)"></circle><circle cx="12" cy="44" fill="rgb(168,170,174)"></circle><circle cx="20" cy="44" fill="rgb(175,174,178)"></circle><circle cx="28" cy="44" fill="rgb(172,175,176)"></circle><circle cx="36" cy="44" fill="rgb(176,176,178)"></circle><circle cx="44" cy="44" fill="rgb(27,16,8)"></circle><circle cx="52" cy="44" fill="rgb(19,12,6)"></circle><circle cx="60" cy="44" fill="rgb(17,10,4)"></circle><circle cx="68" cy="44" fill="rgb(114,60,19)"></circle><circle cx="76" cy="44" fill="rgb(177,108,70)"></circle><circle cx="84" cy="44" fill="rgb(183,124,89)"></circle><circle cx="92" cy="44" fill="rgb(136,88,55)"></circle><circle cx="100" cy="44" fill="rgb(56,27,12)"></circle><circle cx="108" cy="44" fill="rgb(72,55,42)"></circle><circle cx="116" cy="44" fill="rgb(19,14,6)"></circle><circle cx="124" cy="44" fill="rgb(11,10,5)"></circle><circle cx="132" cy="44" fill="rgb(8,6,1)"></circle><circle cx="140" cy="44" fill="rgb(9,5,1)"></circle><circle cx="148" cy="44" fill="rgb(68,64,52)"></circle><circle cx="156" cy="44" fill="rgb(164,164,166)"></circle><circle cx="164" cy="44" fill="rgb(164,164,166)"></circle><circle cx="172" cy="44" fill="rgb(159,158,160)"></circle><circle cx="180" cy="44" fill="rgb(160,159,162)"></circle><circle cx="188" cy="44" fill="rgb(159,158,163)"></circle><circle cx="4" cy="52" fill="rgb(176,178,180)"></circle><circle cx="12" cy="52" fill="rgb(174,177,178)"></circle><circle cx="20" cy="52" fill="rgb(178,181,180)"></circle><circle cx="28" cy="52" fill="rgb(176,179,180)"></circle><circle cx="36" cy="52" fill="rgb(179,178,180)"></circle><circle cx="44" cy="52" fill="rgb(7,6,1)"></circle><circle cx="52" cy="52" fill="rgb(19,12,4)"></circle><circle cx="60" cy="52" fill="rgb(99,48,18)"></circle><circle cx="68" cy="52" fill="rgb(175,98,57)"></circle><circle cx="76" cy="52" fill="rgb(207,123,83)"></circle><circle cx="84" cy="52" fill="rgb(239,144,108)"></circle><circle cx="92" cy="52" fill="rgb(243,154,118)"></circle><circle cx="100" cy="52" fill="rgb(236,159,123)"></circle><circle cx="108" cy="52" fill="rgb(187,124,93)"></circle><circle cx="116" cy="52" fill="rgb(49,17,3)"></circle><circle cx="124" cy="52" fill="rgb(17,7,0)"></circle><circle cx="132" cy="52" fill="rgb(12,6,1)"></circle><circle cx="140" cy="52" fill="rgb(16,13,9)"></circle><circle cx="148" cy="52" fill="rgb(29,15,10)"></circle><circle cx="156" cy="52" fill="rgb(168,167,169)"></circle><circle cx="164" cy="52" fill="rgb(166,166,168)"></circle><circle cx="172" cy="52" fill="rgb(163,163,163)"></circle><circle cx="180" cy="52" fill="rgb(162,164,166)"></circle><circle cx="188" cy="52" fill="rgb(160,160,162)"></circle><circle cx="4" cy="60" fill="rgb(178,180,182)"></circle><circle cx="12" cy="60" fill="rgb(186,188,187)"></circle><circle cx="20" cy="60" fill="rgb(183,186,185)"></circle><circle cx="28" cy="60" fill="rgb(184,185,187)"></circle><circle cx="36" cy="60" fill="rgb(181,181,182)"></circle><circle cx="44" cy="60" fill="rgb(14,9,5)"></circle><circle cx="52" cy="60" fill="rgb(27,15,10)"></circle><circle cx="60" cy="60" fill="rgb(156,84,40)"></circle><circle cx="68" cy="60" fill="rgb(192,109,68)"></circle><circle cx="76" cy="60" fill="rgb(223,139,102)"></circle><circle cx="84" cy="60" fill="rgb(245,156,123)"></circle><circle cx="92" cy="60" fill="rgb(255,173,139)"></circle><circle cx="100" cy="60" fill="rgb(255,189,162)"></circle><circle cx="108" cy="60" fill="rgb(255,177,144)"></circle><circle cx="116" cy="60" fill="rgb(255,170,134)"></circle><circle cx="124" cy="60" fill="rgb(225,144,101)"></circle><circle cx="132" cy="60" fill="rgb(200,121,74)"></circle><circle cx="140" cy="60" fill="rgb(123,86,57)"></circle><circle cx="148" cy="60" fill="rgb(20,16,13)"></circle><circle cx="156" cy="60" fill="rgb(165,165,167)"></circle><circle cx="164" cy="60" fill="rgb(169,169,171)"></circle><circle cx="172" cy="60" fill="rgb(168,168,170)"></circle><circle cx="180" cy="60" fill="rgb(168,167,169)"></circle><circle cx="188" cy="60" fill="rgb(167,166,168)"></circle><circle cx="4" cy="68" fill="rgb(190,190,190)"></circle><circle cx="12" cy="68" fill="rgb(188,188,190)"></circle><circle cx="20" cy="68" fill="rgb(185,187,189)"></circle><circle cx="28" cy="68" fill="rgb(185,185,187)"></circle><circle cx="36" cy="68" fill="rgb(190,190,192)"></circle><circle cx="44" cy="68" fill="rgb(11,10,3)"></circle><circle cx="52" cy="68" fill="rgb(30,16,7)"></circle><circle cx="60" cy="68" fill="rgb(146,85,37)"></circle><circle cx="68" cy="68" fill="rgb(181,114,74)"></circle><circle cx="76" cy="68" fill="rgb(221,136,101)"></circle><circle cx="84" cy="68" fill="rgb(229,146,111)"></circle><circle cx="92" cy="68" fill="rgb(248,164,130)"></circle><circle cx="100" cy="68" fill="rgb(255,177,147)"></circle><circle cx="108" cy="68" fill="rgb(255,168,136)"></circle><circle cx="116" cy="68" fill="rgb(253,166,135)"></circle><circle cx="124" cy="68" fill="rgb(238,157,118)"></circle><circle cx="132" cy="68" fill="rgb(201,118,73)"></circle><circle cx="140" cy="68" fill="rgb(134,79,49)"></circle><circle cx="148" cy="68" fill="rgb(19,13,7)"></circle><circle cx="156" cy="68" fill="rgb(176,175,177)"></circle><circle cx="164" cy="68" fill="rgb(176,179,179)"></circle><circle cx="172" cy="68" fill="rgb(171,171,173)"></circle><circle cx="180" cy="68" fill="rgb(171,171,172)"></circle><circle cx="188" cy="68" fill="rgb(168,167,170)"></circle><circle cx="4" cy="76" fill="rgb(190,193,192)"></circle><circle cx="12" cy="76" fill="rgb(190,190,192)"></circle><circle cx="20" cy="76" fill="rgb(189,191,193)"></circle><circle cx="28" cy="76" fill="rgb(192,192,192)"></circle><circle cx="36" cy="76" fill="rgb(198,198,196)"></circle><circle cx="44" cy="76" fill="rgb(8,7,2)"></circle><circle cx="52" cy="76" fill="rgb(30,15,6)"></circle><circle cx="60" cy="76" fill="rgb(146,76,33)"></circle><circle cx="68" cy="76" fill="rgb(191,115,72)"></circle><circle cx="76" cy="76" fill="rgb(218,134,96)"></circle><circle cx="84" cy="76" fill="rgb(242,156,122)"></circle><circle cx="92" cy="76" fill="rgb(255,168,141)"></circle><circle cx="100" cy="76" fill="rgb(255,193,162)"></circle><circle cx="108" cy="76" fill="rgb(255,174,141)"></circle><circle cx="116" cy="76" fill="rgb(255,171,135)"></circle><circle cx="124" cy="76" fill="rgb(239,152,116)"></circle><circle cx="132" cy="76" fill="rgb(202,124,81)"></circle><circle cx="140" cy="76" fill="rgb(120,56,14)"></circle><circle cx="148" cy="76" fill="rgb(11,8,3)"></circle><circle cx="156" cy="76" fill="rgb(180,182,183)"></circle><circle cx="164" cy="76" fill="rgb(180,180,182)"></circle><circle cx="172" cy="76" fill="rgb(175,175,177)"></circle><circle cx="180" cy="76" fill="rgb(174,174,174)"></circle><circle cx="188" cy="76" fill="rgb(170,173,174)"></circle><circle cx="4" cy="84" fill="rgb(194,194,196)"></circle><circle cx="12" cy="84" fill="rgb(196,195,198)"></circle><circle cx="20" cy="84" fill="rgb(194,194,194)"></circle><circle cx="28" cy="84" fill="rgb(196,195,198)"></circle><circle cx="36" cy="84" fill="rgb(192,192,192)"></circle><circle cx="44" cy="84" fill="rgb(16,10,5)"></circle><circle cx="52" cy="84" fill="rgb(84,41,16)"></circle><circle cx="60" cy="84" fill="rgb(138,71,28)"></circle><circle cx="68" cy="84" fill="rgb(117,59,18)"></circle><circle cx="76" cy="84" fill="rgb(149,98,67)"></circle><circle cx="84" cy="84" fill="rgb(137,83,49)"></circle><circle cx="92" cy="84" fill="rgb(239,159,134)"></circle><circle cx="100" cy="84" fill="rgb(255,179,155)"></circle><circle cx="108" cy="84" fill="rgb(255,165,140)"></circle><circle cx="116" cy="84" fill="rgb(230,159,131)"></circle><circle cx="124" cy="84" fill="rgb(225,152,121)"></circle><circle cx="132" cy="84" fill="rgb(195,119,81)"></circle><circle cx="140" cy="84" fill="rgb(168,98,61)"></circle><circle cx="148" cy="84" fill="rgb(17,10,4)"></circle><circle cx="156" cy="84" fill="rgb(188,188,188)"></circle><circle cx="164" cy="84" fill="rgb(184,184,186)"></circle><circle cx="172" cy="84" fill="rgb(180,180,182)"></circle><circle cx="180" cy="84" fill="rgb(180,179,183)"></circle><circle cx="188" cy="84" fill="rgb(176,176,176)"></circle><circle cx="4" cy="92" fill="rgb(200,200,200)"></circle><circle cx="12" cy="92" fill="rgb(200,200,202)"></circle><circle cx="20" cy="92" fill="rgb(199,199,199)"></circle><circle cx="28" cy="92" fill="rgb(202,200,200)"></circle><circle cx="36" cy="92" fill="rgb(203,204,204)"></circle><circle cx="44" cy="92" fill="rgb(19,7,4)"></circle><circle cx="52" cy="92" fill="rgb(99,46,18)"></circle><circle cx="60" cy="92" fill="rgb(100,44,19)"></circle><circle cx="68" cy="92" fill="rgb(147,80,37)"></circle><circle cx="76" cy="92" fill="rgb(195,124,104)"></circle><circle cx="84" cy="92" fill="rgb(133,58,25)"></circle><circle cx="92" cy="92" fill="rgb(155,81,54)"></circle><circle cx="100" cy="92" fill="rgb(237,149,125)"></circle><circle cx="108" cy="92" fill="rgb(146,77,38)"></circle><circle cx="116" cy="92" fill="rgb(158,89,49)"></circle><circle cx="124" cy="92" fill="rgb(201,135,100)"></circle><circle cx="132" cy="92" fill="rgb(138,82,56)"></circle><circle cx="140" cy="92" fill="rgb(166,94,54)"></circle><circle cx="148" cy="92" fill="rgb(16,9,6)"></circle><circle cx="156" cy="92" fill="rgb(185,185,185)"></circle><circle cx="164" cy="92" fill="rgb(188,188,188)"></circle><circle cx="172" cy="92" fill="rgb(184,184,184)"></circle><circle cx="180" cy="92" fill="rgb(177,179,179)"></circle><circle cx="188" cy="92" fill="rgb(178,178,176)"></circle><circle cx="4" cy="100" fill="rgb(204,205,205)"></circle><circle cx="12" cy="100" fill="rgb(208,209,206)"></circle><circle cx="20" cy="100" fill="rgb(210,207,207)"></circle><circle cx="28" cy="100" fill="rgb(210,210,210)"></circle><circle cx="36" cy="100" fill="rgb(173,135,116)"></circle><circle cx="44" cy="100" fill="rgb(131,51,23)"></circle><circle cx="52" cy="100" fill="rgb(122,61,26)"></circle><circle cx="60" cy="100" fill="rgb(164,98,59)"></circle><circle cx="68" cy="100" fill="rgb(125,53,20)"></circle><circle cx="76" cy="100" fill="rgb(99,32,10)"></circle><circle cx="84" cy="100" fill="rgb(214,132,107)"></circle><circle cx="92" cy="100" fill="rgb(165,86,42)"></circle><circle cx="100" cy="100" fill="rgb(255,173,144)"></circle><circle cx="108" cy="100" fill="rgb(219,129,91)"></circle><circle cx="116" cy="100" fill="rgb(147,106,84)"></circle><circle cx="124" cy="100" fill="rgb(167,147,145)"></circle><circle cx="132" cy="100" fill="rgb(165,94,55)"></circle><circle cx="140" cy="100" fill="rgb(177,107,71)"></circle><circle cx="148" cy="100" fill="rgb(115,23,8)"></circle><circle cx="156" cy="100" fill="rgb(191,191,191)"></circle><circle cx="164" cy="100" fill="rgb(192,192,192)"></circle><circle cx="172" cy="100" fill="rgb(190,191,192)"></circle><circle cx="180" cy="100" fill="rgb(185,186,187)"></circle><circle cx="188" cy="100" fill="rgb(186,186,188)"></circle><circle cx="4" cy="108" fill="rgb(206,206,206)"></circle><circle cx="12" cy="108" fill="rgb(210,210,209)"></circle><circle cx="20" cy="108" fill="rgb(216,216,216)"></circle><circle cx="28" cy="108" fill="rgb(211,211,210)"></circle><circle cx="36" cy="108" fill="rgb(223,219,219)"></circle><circle cx="44" cy="108" fill="rgb(107,16,6)"></circle><circle cx="52" cy="108" fill="rgb(117,63,26)"></circle><circle cx="60" cy="108" fill="rgb(172,93,59)"></circle><circle cx="68" cy="108" fill="rgb(234,140,111)"></circle><circle cx="76" cy="108" fill="rgb(211,128,106)"></circle><circle cx="84" cy="108" fill="rgb(226,144,118)"></circle><circle cx="92" cy="108" fill="rgb(174,91,53)"></circle><circle cx="100" cy="108" fill="rgb(249,150,127)"></circle><circle cx="108" cy="108" fill="rgb(223,136,109)"></circle><circle cx="116" cy="108" fill="rgb(199,124,101)"></circle><circle cx="124" cy="108" fill="rgb(167,86,49)"></circle><circle cx="132" cy="108" fill="rgb(220,133,101)"></circle><circle cx="140" cy="108" fill="rgb(175,104,73)"></circle><circle cx="148" cy="108" fill="rgb(197,113,83)"></circle><circle cx="156" cy="108" fill="rgb(203,201,199)"></circle><circle cx="164" cy="108" fill="rgb(196,196,196)"></circle><circle cx="172" cy="108" fill="rgb(191,194,194)"></circle><circle cx="180" cy="108" fill="rgb(187,187,187)"></circle><circle cx="188" cy="108" fill="rgb(186,186,186)"></circle><circle cx="4" cy="116" fill="rgb(217,217,215)"></circle><circle cx="12" cy="116" fill="rgb(221,221,219)"></circle><circle cx="20" cy="116" fill="rgb(216,216,214)"></circle><circle cx="28" cy="116" fill="rgb(222,223,221)"></circle><circle cx="36" cy="116" fill="rgb(230,228,226)"></circle><circle cx="44" cy="116" fill="rgb(141,74,45)"></circle><circle cx="52" cy="116" fill="rgb(105,49,25)"></circle><circle cx="60" cy="116" fill="rgb(161,93,59)"></circle><circle cx="68" cy="116" fill="rgb(225,131,103)"></circle><circle cx="76" cy="116" fill="rgb(255,156,139)"></circle><circle cx="84" cy="116" fill="rgb(231,139,104)"></circle><circle cx="92" cy="116" fill="rgb(186,107,74)"></circle><circle cx="100" cy="116" fill="rgb(255,158,135)"></circle><circle cx="108" cy="116" fill="rgb(218,129,93)"></circle><circle cx="116" cy="116" fill="rgb(255,164,131)"></circle><circle cx="124" cy="116" fill="rgb(255,153,131)"></circle><circle cx="132" cy="116" fill="rgb(229,140,106)"></circle><circle cx="140" cy="116" fill="rgb(139,84,50)"></circle><circle cx="148" cy="116" fill="rgb(194,167,166)"></circle><circle cx="156" cy="116" fill="rgb(207,206,207)"></circle><circle cx="164" cy="116" fill="rgb(206,203,204)"></circle><circle cx="172" cy="116" fill="rgb(202,202,202)"></circle><circle cx="180" cy="116" fill="rgb(199,196,197)"></circle><circle cx="188" cy="116" fill="rgb(193,194,194)"></circle><circle cx="4" cy="124" fill="rgb(220,219,217)"></circle><circle cx="12" cy="124" fill="rgb(230,230,228)"></circle><circle cx="20" cy="124" fill="rgb(230,230,228)"></circle><circle cx="28" cy="124" fill="rgb(235,233,229)"></circle><circle cx="36" cy="124" fill="rgb(233,231,228)"></circle><circle cx="44" cy="124" fill="rgb(250,237,241)"></circle><circle cx="52" cy="124" fill="rgb(110,46,22)"></circle><circle cx="60" cy="124" fill="rgb(118,61,27)"></circle><circle cx="68" cy="124" fill="rgb(208,128,93)"></circle><circle cx="76" cy="124" fill="rgb(219,124,94)"></circle><circle cx="84" cy="124" fill="rgb(136,48,23)"></circle><circle cx="92" cy="124" fill="rgb(130,61,41)"></circle><circle cx="100" cy="124" fill="rgb(205,119,93)"></circle><circle cx="108" cy="124" fill="rgb(168,89,69)"></circle><circle cx="116" cy="124" fill="rgb(202,111,70)"></circle><circle cx="124" cy="124" fill="rgb(244,145,121)"></circle><circle cx="132" cy="124" fill="rgb(211,136,103)"></circle><circle cx="140" cy="124" fill="rgb(221,151,125)"></circle><circle cx="148" cy="124" fill="rgb(215,213,211)"></circle><circle cx="156" cy="124" fill="rgb(212,212,210)"></circle><circle cx="164" cy="124" fill="rgb(206,206,206)"></circle><circle cx="172" cy="124" fill="rgb(206,206,206)"></circle><circle cx="180" cy="124" fill="rgb(198,198,198)"></circle><circle cx="188" cy="124" fill="rgb(195,195,195)"></circle><circle cx="4" cy="132" fill="rgb(227,228,224)"></circle><circle cx="12" cy="132" fill="rgb(232,230,226)"></circle><circle cx="20" cy="132" fill="rgb(231,232,228)"></circle><circle cx="28" cy="132" fill="rgb(236,234,231)"></circle><circle cx="36" cy="132" fill="rgb(239,237,231)"></circle><circle cx="44" cy="132" fill="rgb(239,237,231)"></circle><circle cx="52" cy="132" fill="rgb(239,236,231)"></circle><circle cx="60" cy="132" fill="rgb(109,54,23)"></circle><circle cx="68" cy="132" fill="rgb(201,119,80)"></circle><circle cx="76" cy="132" fill="rgb(184,111,76)"></circle><circle cx="84" cy="132" fill="rgb(181,108,75)"></circle><circle cx="92" cy="132" fill="rgb(161,84,56)"></circle><circle cx="100" cy="132" fill="rgb(151,92,67)"></circle><circle cx="108" cy="132" fill="rgb(209,138,106)"></circle><circle cx="116" cy="132" fill="rgb(184,113,83)"></circle><circle cx="124" cy="132" fill="rgb(164,90,52)"></circle><circle cx="132" cy="132" fill="rgb(166,103,66)"></circle><circle cx="140" cy="132" fill="rgb(221,219,217)"></circle><circle cx="148" cy="132" fill="rgb(220,218,216)"></circle><circle cx="156" cy="132" fill="rgb(217,215,213)"></circle><circle cx="164" cy="132" fill="rgb(213,214,211)"></circle><circle cx="172" cy="132" fill="rgb(214,209,208)"></circle><circle cx="180" cy="132" fill="rgb(205,205,205)"></circle><circle cx="188" cy="132" fill="rgb(199,199,199)"></circle><circle cx="4" cy="140" fill="rgb(236,234,230)"></circle><circle cx="12" cy="140" fill="rgb(241,239,235)"></circle><circle cx="20" cy="140" fill="rgb(240,241,236)"></circle><circle cx="28" cy="140" fill="rgb(235,236,231)"></circle><circle cx="36" cy="140" fill="rgb(238,237,233)"></circle><circle cx="44" cy="140" fill="rgb(242,240,237)"></circle><circle cx="52" cy="140" fill="rgb(243,241,238)"></circle><circle cx="60" cy="140" fill="rgb(110,56,27)"></circle><circle cx="68" cy="140" fill="rgb(169,105,67)"></circle><circle cx="76" cy="140" fill="rgb(212,134,100)"></circle><circle cx="84" cy="140" fill="rgb(153,103,71)"></circle><circle cx="92" cy="140" fill="rgb(245,213,175)"></circle><circle cx="100" cy="140" fill="rgb(249,209,179)"></circle><circle cx="108" cy="140" fill="rgb(238,207,162)"></circle><circle cx="116" cy="140" fill="rgb(158,46,35)"></circle><circle cx="124" cy="140" fill="rgb(197,127,87)"></circle><circle cx="132" cy="140" fill="rgb(165,103,67)"></circle><circle cx="140" cy="140" fill="rgb(227,224,223)"></circle><circle cx="148" cy="140" fill="rgb(221,218,217)"></circle><circle cx="156" cy="140" fill="rgb(220,219,217)"></circle><circle cx="164" cy="140" fill="rgb(213,214,212)"></circle><circle cx="172" cy="140" fill="rgb(212,211,209)"></circle><circle cx="180" cy="140" fill="rgb(215,213,211)"></circle><circle cx="188" cy="140" fill="rgb(209,209,209)"></circle><circle cx="4" cy="148" fill="rgb(237,237,233)"></circle><circle cx="12" cy="148" fill="rgb(235,236,232)"></circle><circle cx="20" cy="148" fill="rgb(245,243,240)"></circle><circle cx="28" cy="148" fill="rgb(245,244,239)"></circle><circle cx="36" cy="148" fill="rgb(248,246,243)"></circle><circle cx="44" cy="148" fill="rgb(244,244,238)"></circle><circle cx="52" cy="148" fill="rgb(246,245,239)"></circle><circle cx="60" cy="148" fill="rgb(97,57,35)"></circle><circle cx="68" cy="148" fill="rgb(109,52,24)"></circle><circle cx="76" cy="148" fill="rgb(204,135,96)"></circle><circle cx="84" cy="148" fill="rgb(165,84,61)"></circle><circle cx="92" cy="148" fill="rgb(223,94,91)"></circle><circle cx="100" cy="148" fill="rgb(237,130,133)"></circle><circle cx="108" cy="148" fill="rgb(222,99,98)"></circle><circle cx="116" cy="148" fill="rgb(228,147,113)"></circle><circle cx="124" cy="148" fill="rgb(165,110,81)"></circle><circle cx="132" cy="148" fill="rgb(140,90,63)"></circle><circle cx="140" cy="148" fill="rgb(230,226,219)"></circle><circle cx="148" cy="148" fill="rgb(230,228,225)"></circle><circle cx="156" cy="148" fill="rgb(226,224,223)"></circle><circle cx="164" cy="148" fill="rgb(221,219,217)"></circle><circle cx="172" cy="148" fill="rgb(218,215,214)"></circle><circle cx="180" cy="148" fill="rgb(217,215,213)"></circle><circle cx="188" cy="148" fill="rgb(209,206,207)"></circle><circle cx="4" cy="156" fill="rgb(245,245,240)"></circle><circle cx="12" cy="156" fill="rgb(246,245,239)"></circle><circle cx="20" cy="156" fill="rgb(246,244,240)"></circle><circle cx="28" cy="156" fill="rgb(252,250,245)"></circle><circle cx="36" cy="156" fill="rgb(252,250,245)"></circle><circle cx="44" cy="156" fill="rgb(252,253,249)"></circle><circle cx="52" cy="156" fill="rgb(254,254,252)"></circle><circle cx="60" cy="156" fill="rgb(253,255,251)"></circle><circle cx="68" cy="156" fill="rgb(84,43,22)"></circle><circle cx="76" cy="156" fill="rgb(117,74,39)"></circle><circle cx="84" cy="156" fill="rgb(228,142,104)"></circle><circle cx="92" cy="156" fill="rgb(202,117,81)"></circle><circle cx="100" cy="156" fill="rgb(171,102,73)"></circle><circle cx="108" cy="156" fill="rgb(235,147,111)"></circle><circle cx="116" cy="156" fill="rgb(218,149,112)"></circle><circle cx="124" cy="156" fill="rgb(140,91,63)"></circle><circle cx="132" cy="156" fill="rgb(168,92,47)"></circle><circle cx="140" cy="156" fill="rgb(76,105,148)"></circle><circle cx="148" cy="156" fill="rgb(233,231,227)"></circle><circle cx="156" cy="156" fill="rgb(229,227,223)"></circle><circle cx="164" cy="156" fill="rgb(227,225,223)"></circle><circle cx="172" cy="156" fill="rgb(222,219,218)"></circle><circle cx="180" cy="156" fill="rgb(213,213,211)"></circle><circle cx="188" cy="156" fill="rgb(206,207,204)"></circle><circle cx="4" cy="164" fill="rgb(250,249,243)"></circle><circle cx="12" cy="164" fill="rgb(255,253,248)"></circle><circle cx="20" cy="164" fill="rgb(255,255,251)"></circle><circle cx="28" cy="164" fill="rgb(254,255,251)"></circle><circle cx="36" cy="164" fill="rgb(255,255,255)"></circle><circle cx="44" cy="164" fill="rgb(254,254,254)"></circle><circle cx="52" cy="164" fill="rgb(254,254,254)"></circle><circle cx="60" cy="164" fill="rgb(254,254,254)"></circle><circle cx="68" cy="164" fill="rgb(104,44,21)"></circle><circle cx="76" cy="164" fill="rgb(75,40,31)"></circle><circle cx="84" cy="164" fill="rgb(132,90,57)"></circle><circle cx="92" cy="164" fill="rgb(184,126,97)"></circle><circle cx="100" cy="164" fill="rgb(212,146,122)"></circle><circle cx="108" cy="164" fill="rgb(190,132,104)"></circle><circle cx="116" cy="164" fill="rgb(142,103,76)"></circle><circle cx="124" cy="164" fill="rgb(162,91,54)"></circle><circle cx="132" cy="164" fill="rgb(174,92,48)"></circle><circle cx="140" cy="164" fill="rgb(76,109,160)"></circle><circle cx="148" cy="164" fill="rgb(196,212,224)"></circle><circle cx="156" cy="164" fill="rgb(234,232,228)"></circle><circle cx="164" cy="164" fill="rgb(230,228,224)"></circle><circle cx="172" cy="164" fill="rgb(227,225,224)"></circle><circle cx="180" cy="164" fill="rgb(219,219,217)"></circle><circle cx="188" cy="164" fill="rgb(216,217,215)"></circle><circle cx="4" cy="172" fill="rgb(254,255,250)"></circle><circle cx="12" cy="172" fill="rgb(254,254,252)"></circle><circle cx="20" cy="172" fill="rgb(254,254,254)"></circle><circle cx="28" cy="172" fill="rgb(254,254,254)"></circle><circle cx="36" cy="172" fill="rgb(254,254,254)"></circle><circle cx="44" cy="172" fill="rgb(254,254,254)"></circle><circle cx="52" cy="172" fill="rgb(254,254,254)"></circle><circle cx="60" cy="172" fill="rgb(101,96,104)"></circle><circle cx="68" cy="172" fill="rgb(95,36,16)"></circle><circle cx="76" cy="172" fill="rgb(98,44,23)"></circle><circle cx="84" cy="172" fill="rgb(84,40,18)"></circle><circle cx="92" cy="172" fill="rgb(49,31,31)"></circle><circle cx="100" cy="172" fill="rgb(60,38,31)"></circle><circle cx="108" cy="172" fill="rgb(38,28,31)"></circle><circle cx="116" cy="172" fill="rgb(141,77,43)"></circle><circle cx="124" cy="172" fill="rgb(214,134,100)"></circle><circle cx="132" cy="172" fill="rgb(67,113,171)"></circle><circle cx="140" cy="172" fill="rgb(84,120,173)"></circle><circle cx="148" cy="172" fill="rgb(79,113,168)"></circle><circle cx="156" cy="172" fill="rgb(64,100,154)"></circle><circle cx="164" cy="172" fill="rgb(236,234,231)"></circle><circle cx="172" cy="172" fill="rgb(230,229,225)"></circle><circle cx="180" cy="172" fill="rgb(224,222,219)"></circle><circle cx="188" cy="172" fill="rgb(225,223,221)"></circle><circle cx="4" cy="180" fill="rgb(254,254,254)"></circle><circle cx="12" cy="180" fill="rgb(254,254,254)"></circle><circle cx="20" cy="180" fill="rgb(254,254,254)"></circle><circle cx="28" cy="180" fill="rgb(254,254,254)"></circle><circle cx="36" cy="180" fill="rgb(254,254,254)"></circle><circle cx="44" cy="180" fill="rgb(255,254,254)"></circle><circle cx="52" cy="180" fill="rgb(33,43,70)"></circle><circle cx="60" cy="180" fill="rgb(23,28,62)"></circle><circle cx="68" cy="180" fill="rgb(40,20,11)"></circle><circle cx="76" cy="180" fill="rgb(88,31,15)"></circle><circle cx="84" cy="180" fill="rgb(91,40,24)"></circle><circle cx="92" cy="180" fill="rgb(126,73,42)"></circle><circle cx="100" cy="180" fill="rgb(118,74,44)"></circle><circle cx="108" cy="180" fill="rgb(147,90,65)"></circle><circle cx="116" cy="180" fill="rgb(177,109,75)"></circle><circle cx="124" cy="180" fill="rgb(87,129,185)"></circle><circle cx="132" cy="180" fill="rgb(53,105,167)"></circle><circle cx="140" cy="180" fill="rgb(60,111,172)"></circle><circle cx="148" cy="180" fill="rgb(78,114,172)"></circle><circle cx="156" cy="180" fill="rgb(73,110,172)"></circle><circle cx="164" cy="180" fill="rgb(87,124,179)"></circle><circle cx="172" cy="180" fill="rgb(71,112,161)"></circle><circle cx="180" cy="180" fill="rgb(205,227,237)"></circle><circle cx="188" cy="180" fill="rgb(221,219,217)"></circle><circle cx="4" cy="188" fill="rgb(254,254,254)"></circle><circle cx="12" cy="188" fill="rgb(254,254,254)"></circle><circle cx="20" cy="188" fill="rgb(254,254,254)"></circle><circle cx="28" cy="188" fill="rgb(255,254,255)"></circle><circle cx="36" cy="188" fill="rgb(28,57,94)"></circle><circle cx="44" cy="188" fill="rgb(14,42,92)"></circle><circle cx="52" cy="188" fill="rgb(8,15,38)"></circle><circle cx="60" cy="188" fill="rgb(43,74,117)"></circle><circle cx="68" cy="188" fill="rgb(9,5,2)"></circle><circle cx="76" cy="188" fill="rgb(83,29,12)"></circle><circle cx="84" cy="188" fill="rgb(105,54,29)"></circle><circle cx="92" cy="188" fill="rgb(104,50,30)"></circle><circle cx="100" cy="188" fill="rgb(146,91,60)"></circle><circle cx="108" cy="188" fill="rgb(156,93,58)"></circle><circle cx="116" cy="188" fill="rgb(81,124,175)"></circle><circle cx="124" cy="188" fill="rgb(29,83,153)"></circle><circle cx="132" cy="188" fill="rgb(55,104,163)"></circle><circle cx="140" cy="188" fill="rgb(67,118,178)"></circle><circle cx="148" cy="188" fill="rgb(65,100,143)"></circle><circle cx="156" cy="188" fill="rgb(31,86,152)"></circle><circle cx="164" cy="188" fill="rgb(94,125,174)"></circle><circle cx="172" cy="188" fill="rgb(67,120,188)"></circle><circle cx="180" cy="188" fill="rgb(85,118,168)"></circle><circle cx="188" cy="188" fill="rgb(71,105,159)"></circle></g></svg>
