<?xml version="1.0" encoding="utf-8"?>
<!--

Palm Tree designed by Rachel Healey from the Noun Project.
Creative Commons - Attribution (CC BY 3.0)
http://thenounproject.com/term/palm-tree/10397/

-->
<svg xmlns="http://www.w3.org/2000/svg" xmlns:xlink="http://www.w3.org/1999/xlink" version="1.1" x="0px" y="0px" width="100px" height="100px" viewBox="0 0 100 100" enable-background="new 0 0 100 100" xml:space="preserve">
<g id="Your_Icon">
	<g id="AFFojH_1_">
		<path fill="#333333" d="M33.976,98.124c-0.955-2.545-4.413-40.18,13.565-66.274l-2.946-0.256c0,0-33.5,32.173-25.256,66.53    C22.521,98.124,33.976,98.124,33.976,98.124z"/>
		<path fill="#333333" d="M42.568,27.869c0.191,0.773-1.512,1.865-4.022,3.496c-1.352-1.173-4.391-0.541-4.67-0.359    c-0.286,0.188,3.049,0.588,2.975,1.471c-0.985,0.656-2.04,1.387-3.12,2.196c-0.132-0.405-2.658-0.399-2.919-0.196    c0,0,1.918,0.99,1.386,1.395c-3.253,2.652-6.523,6.072-8.563,10.513C19.497,44.633,25.703,18.222,42.568,27.869z"/>
		<path fill="#333333" d="M48.37,33.545c-0.407,0.686,0.905,2.224,2.836,4.511c1.634-0.73,4.361,0.755,4.574,1.013    c0.219,0.262-3.089-0.322-3.274,0.545c0.753,0.914,1.551,1.918,2.35,3.006c0.244-0.352,2.658,0.389,2.85,0.657    c0,0-2.123,0.392-1.731,0.933c2.346,3.48,4.483,7.703,5.149,12.545C65.59,56.277,67.31,29.201,48.37,33.545z"/>
		<path fill="#333333" d="M54.655,29.832c0.283,0.934,2.758,1.016,6.42,1.159c0.687-2.081,4.277-3.319,4.687-3.302    c0.418,0.018-2.84,2.527-2.208,3.41c1.446,0.074,3.014,0.18,4.657,0.355c-0.116-0.51,2.543-2.086,2.947-2.034    c0,0-1.399,2.241-0.586,2.335c5.083,0.752,10.663,2.3,15.59,5.691C89.416,33.017,66.352,9.126,54.655,29.832z"/>
		<path fill="#333333" d="M52.951,23.248c0.911,0.654,3.224-0.994,6.665-3.411c-0.823-2.376,1.592-6.007,1.978-6.274    c0.395-0.275-0.833,4.281,0.36,4.646c1.37-0.939,2.872-1.934,4.495-2.916c-0.461-0.385,0.869-3.674,1.271-3.908    c0,0,0.286,3.019,1.094,2.537C73.974,11.07,80.143,8.598,87,8.264C86.884,1.955,49.209-3.786,52.951,23.248z"/>
		<path fill="#333333" d="M48.026,24.416c-0.729,0.555-2.66-0.74-5.53-2.641c0.619-1.962-1.44-4.878-1.762-5.088    c-0.328-0.216,0.779,3.484-0.188,3.811c-1.143-0.738-2.395-1.516-3.744-2.283c0.367-0.326-0.795-2.986-1.131-3.168    c0,0-0.164,2.475-0.835,2.101c-4.288-2.216-9.391-4.098-15.009-4.214C19.777,7.769,50.473,2.211,48.026,24.416z"/>
		<path fill="#333333" d="M37.165,98.124c-0.067-0.445,0.15-0.878,0.358-1.321c0.337-0.722,0.179-1.137-0.358-2.365    c0,0,3.237,2.699,1.978,3.687H37.165z"/>
		<path fill="#333333" d="M36.275,98.124c-0.053-0.347,0.116-0.683,0.278-1.027c0.262-0.561,0.14-0.885-0.278-1.839    c0,0,2.517,2.099,1.538,2.866H36.275z"/>
		<path fill="#333333" d="M34.426,98.124c-0.071-0.396,0.156-0.781,0.371-1.177c0.35-0.642,0.187-1.013-0.371-2.105    c0,0,3.358,2.403,2.053,3.282H34.426z"/>
		<path fill="#333333" d="M33.479,98.124c-0.056-0.335,0.124-0.66,0.293-0.995c0.277-0.543,0.148-0.855-0.293-1.781    c0,0,2.657,2.032,1.624,2.776H33.479z"/>
		<path fill="#333333" d="M17.523,98.124c-0.068-0.445,0.15-0.878,0.357-1.321c0.337-0.722,0.18-1.137-0.357-2.365    c0,0,3.236,2.699,1.978,3.687H17.523z"/>
		<path fill="#333333" d="M16.085,98.124c-0.053-0.347,0.116-0.683,0.278-1.027c0.262-0.561,0.139-0.885-0.278-1.839    c0,0,2.517,2.099,1.538,2.866H16.085z"/>
		<path fill="#333333" d="M14.593,98.124c-0.056-0.335,0.124-0.66,0.293-0.995c0.277-0.543,0.147-0.855-0.293-1.781    c0,0,2.657,2.032,1.624,2.776H14.593z"/>
	</g>
</g>
</svg>
